<?xml version="1.0" encoding="utf-8"?>
<!-- Generator: Adobe Illustrator 21.1.0, SVG Export Plug-In . SVG Version: 6.00 Build 0)  -->
<svg version="1.1" id="Layer_1" xmlns="http://www.w3.org/2000/svg" xmlns:xlink="http://www.w3.org/1999/xlink" x="0px" y="0px"
	 viewBox="0 0 360 88" style="enable-background:new 0 0 360 88;" xml:space="preserve">
<style type="text/css">
	.st0{fill:#00AEF1;}
	.st1{fill:#414094;}
	.st2{fill:#23A5D2;}
	.st3{fill:#424294;}
	.st4{fill:#404196;}
	.st5{fill:#3F4195;}
	.st6{fill:#3E4198;}
	.st7{fill:#353535;}
	.st8{fill:#3B3B3B;}
	.st9{fill:#3F4194;}
	.st10{fill:#404194;}
	.st11{fill:#373737;}
	.st12{fill:#343434;}
	.st13{fill:#363636;}
	.st14{fill:#413F9A;}
	.st15{fill:#414197;}
	.st16{fill:#FEFEFE;}
	.st17{fill:#D9FEFE;}
	.st18{fill:#414294;}
	.st19{fill:#414196;}
	.st20{fill:#3E419A;}
	.st21{fill:#00AFF2;}
</style>
<circle class="st0" cx="-3.9" cy="145.5" r="27"/>
<path class="st0" d="M264.8,73.7c0,0.1-0.1,0.1-0.2,0.1c-0.2,0-0.4-0.1-0.7,0c-43.4,0-86.8,0-130.2,0c-0.8,0-1.6,0.3-2.3,0.8
	c-1.6,1.3-3.4,2.4-5.3,3.3c-1,0.5-1.9,0.9-2.9,1.3s-2.1,0.7-3.2,0.9c-1.9,0.4-3.8,0.7-5.8,0.8c-1.7,0.1-3.5,0-5.2-0.2
	c-1.4-0.2-2.7-0.5-4-0.8c-2.1-0.6-4.1-1.3-6-2.3c-1.4-0.7-2.7-1.6-4-2.5c-1.2-0.9-2.4-1.9-3.5-3s-2.1-2.2-2.9-3.5
	c-0.6-0.9-1.2-1.8-1.8-2.7c-0.4-0.7-0.8-1.4-1.1-2.2c-0.7-1.4-1.2-2.9-1.7-4.4c-0.7-2.3-1.1-4.6-1.2-7c-0.1-1-0.1-1.9,0-2.9
	c0-0.1,0-0.3,0-0.4c-0.1-0.3-0.1-0.5,0-0.8c0.4-4.2,1.6-8.3,3.6-12c1-1.7,2.1-3.4,3.4-4.9c1-1.1,2-2.2,3.2-3.2
	c1.5-1.4,3.2-2.6,5-3.6c1.6-0.9,3.2-1.6,4.9-2.2c1.8-0.6,3.7-1.1,5.6-1.4c1.5-0.2,3.1-0.3,4.6-0.3c1.2,0,2.5,0.1,3.7,0.3
	c1,0.1,2,0.3,3,0.5c4.3,1,8.4,2.9,11.8,5.6c0.1,0.1,0.3,0.2,0.4,0.4c0.3,0.5,0.9,0.6,1.4,0.7c0.1,0,0.2,0,0.3,0
	c17.7,0,35.5,0.1,53.2,0c8.6-0.1,17.1,0,25.7-0.1c8.6,0,17.1,0,25.7,0H264c1.1,0,0.9,0,0.9,0.8c0,14.8,0,29.6,0,44.4
	C264.9,73.2,264.9,73.5,264.8,73.7z"/>
<path class="st1" d="M131.9,27.2c-1-0.9-2.1-1.7-3.3-2.3c-1-0.6-1.9-1.1-3-1.6s-2.2-0.9-3.3-1.3c-1.1-0.3-2.2-0.6-3.4-0.9
	c-1.1-0.2-2.1-0.4-3.2-0.4c-1.4-0.1-2.8-0.2-4.2-0.1c-1.4,0.1-2.9,0.3-4.3,0.5c-0.7,0.2-1.4,0.3-2.2,0.5c-0.9,0.2-1.8,0.5-2.6,0.8
	c-1.3,0.5-2.5,1.1-3.7,1.7c-1.2,0.7-2.3,1.4-3.4,2.1c-0.4,0.3-0.8,0.7-1.2,1c-0.4,0.3-0.8,0.6-1.2,1c-1,0.9-1.9,1.8-2.8,2.8
	c-0.9,1.1-1.8,2.2-2.5,3.4c-1,1.5-1.8,3.1-2.4,4.8c-0.5,1.3-0.9,2.6-1.3,3.9c-0.2,0.7-0.3,1.3-0.4,2c-0.2,1.2-0.3,2.4-0.5,3.6
	c-0.3,0-0.6,0-0.9,0s-0.4-0.1-0.4-0.4c0.1-1.1,0.2-2.1,0.3-3.1c0.4-2.2,1-4.4,1.8-6.5c1.2-2.9,2.8-5.7,4.7-8.1
	c1.4-1.8,3.1-3.4,4.8-4.9c1.6-1.3,3.3-2.4,5.1-3.4c5-2.6,10.6-3.9,16.3-3.7c2.1,0.1,4.2,0.4,6.3,0.9c2.4,0.6,4.7,1.5,6.9,2.6
	c1.6,0.8,3.2,1.8,4.6,2.9c0.3,0.2,0.6,0.5,0.9,0.7c0.3,0.1,0.6,0.2,1,0.1c4.7,0,9.3,0,14,0c11.1,0,22.2,0,33.2,0c1.3,0,2.5,0,3.8,0
	c0.2,0,0.3,0,0.3-0.3c0-1,0-1.9,0-2.9c0-0.5,0.1-0.6,0.6-0.6c1.9,0,3.9,0,5.8,0c0.4,0,0.5-0.1,0.5-0.5c0-1.4,0-2.8,0-4.2
	c0-0.3,0-0.5-0.4-0.5c-0.1,0-0.2-0.1-0.3-0.1l1.7-2.2c0.6,0.7,1,1.4,1.5,2.1c0.2,0.2,0,0.3-0.2,0.3c-0.4,0-0.5,0.1-0.5,0.4
	c0,1.9,0,3.9,0,5.9c0,0.6-0.1,0.6-0.6,0.6h-5.9c-0.2,0-0.3,0-0.3,0.2c0,1.1,0,2.2,0,3.4c0.1,0.2-0.1,0.2-0.2,0.2c-0.2,0-0.4,0-0.5,0
	c-17.6,0-35.2,0-52.8,0C133.3,28.1,132.5,27.8,131.9,27.2z"/>
<path class="st2" d="M131.9,27.2c0.1,0,0.2,0,0.3,0.1c0.4,0.4,0.9,0.6,1.5,0.5h24.8c9.6,0,19.1,0,28.7,0c0.2,0,0.4,0.1,0.5-0.2h12.6
	h64.1c0.6,0,0.6,0,0.6,0.6c0,14.5,0,29.1,0,43.6c0,0.5,0,0.9,0,1.4c0,0.2,0,0.3-0.2,0.4c0-15.1,0-30.1,0-45.2c0-0.7,0-0.7-0.7-0.7
	h-75.7c-9.1,0.4-18.2,0.1-27.3,0.2s-18.2,0-27.3,0c-0.5,0-1-0.1-1.4-0.3C132.1,27.7,132.1,27.4,131.9,27.2z"/>
<path class="st3" d="M102.2,16.8c-0.2-0.5-0.4-0.9-0.6-1.3c-0.2-0.4-0.4-0.8-0.5-1.2h-0.2c0,0.7,0,1.4,0,2c0,0.3,0,0.5-0.4,0.5
	s-0.6-0.1-0.6-0.5c0-1.2,0-2.5,0-3.7c0-0.3,0.1-0.4,0.4-0.5c0.3,0,0.6,0,0.8,0c0.3,0,0.5,0.2,0.6,0.5c0.2,0.4,0.3,0.8,0.5,1.2
	c0,0.1,0,0.2,0.1,0.2s0.2-0.1,0.2-0.2c0.2-0.5,0.4-0.9,0.6-1.4c0-0.1,0.2-0.3,0.3-0.3c0.3,0,0.7,0,1,0c0.2,0,0.3,0.1,0.3,0.3l0,0
	c0,0.1,0,0.3,0,0.4c0,1.1,0,2.3,0,3.4c0,0.4-0.2,0.5-0.5,0.5c-0.1,0-0.3,0-0.4,0c-0.4,0-0.5-0.1-0.5-0.5c0-0.6,0-1.2,0-1.8
	c0-0.1,0-0.2-0.1-0.2s-0.2,0.1-0.2,0.2c-0.2,0.7-0.5,1.4-0.8,2C102.3,16.6,102.3,16.7,102.2,16.8z"/>
<path class="st4" d="M116.5,14.2c-0.2,0.1-0.1,0.2-0.1,0.4c0,0.6,0,1.2,0,1.8c0,0.3-0.2,0.4-0.5,0.4s-0.5-0.1-0.5-0.4
	c0-1.3,0-2.6,0-3.8c0-0.2,0.1-0.4,0.4-0.5h0.1c0.3,0,0.6,0,1,0s0.4,0.2,0.5,0.4c0.2,0.4,0.3,0.8,0.5,1.2c0,0.1,0,0.2,0.2,0.2
	c0.1,0,0.1-0.1,0.2-0.2c0.2-0.4,0.3-0.8,0.5-1.2c0.1-0.3,0.4-0.5,0.7-0.5c1.1,0,1.1-0.1,1.1,1.1c0,1.1,0,2.1,0,3.1
	c0,0.4-0.2,0.6-0.5,0.5c-0.1,0-0.2,0-0.3,0c-0.4,0-0.6-0.2-0.5-0.5c0-0.6,0-1.2,0-1.7c0-0.1,0-0.3-0.1-0.4c-0.2,0.4-0.4,0.9-0.5,1.4
	c-0.1,0.3-0.2,0.6-0.4,0.9c0,0.1,0,0.2-0.2,0.2s-0.1-0.1-0.2-0.2c-0.3-0.7-0.6-1.4-0.9-2.1C116.7,14.3,116.6,14.2,116.5,14.2z"/>
<path class="st5" d="M175.8,18.1c-0.4-0.7-0.6-0.8-1.3-0.7c-0.2,0-0.4,0.1-0.4,0.3c0,0.2,0.1,0.4,0.3,0.4l0,0c0.3,0.1,0.6,0.2,1,0.2
	c0.9,0.3,1.4,0.8,1.4,1.6c-0.1,0.8-0.7,1.5-1.5,1.6c-0.9,0.2-1.9-0.1-2.5-0.9c-0.1-0.2-0.3-0.4,0.1-0.5c0.1,0,0.2-0.1,0.2-0.2
	c0.3-0.3,0.5-0.4,0.8,0.1c0.4,0.4,1,0.5,1.5,0.3c0.2-0.1,0.3-0.4,0.2-0.6c0-0.1-0.1-0.1-0.2-0.2c-0.4-0.2-0.9-0.3-1.3-0.4
	c-0.8-0.2-1.2-1-1-1.8v-0.1c0.2-0.6,0.8-1,1.4-1.1c0.9-0.1,1.7,0.2,2.2,1c0.1,0.2,0.1,0.3-0.1,0.4C176.3,17.7,176,17.9,175.8,18.1z"
	/>
<path class="st6" d="M105.7,15.6c0.5,0.3,1.1,0.4,1.7,0.4c0.2,0,0.4,0,0.5-0.1c0.2,0,0.4-0.2,0.4-0.5s-0.1-0.4-0.4-0.5
	s-0.6-0.2-1-0.2c-1-0.1-1.4-0.4-1.4-1.1c-0.1-0.8,0.5-1.5,1.2-1.6c0.8-0.2,1.5-0.2,2.3,0.1c0.1,0,0.2,0.1,0.3,0.2
	c0.1,0.1,0.2,0.3,0.1,0.5s-0.3,0.1-0.4,0c-0.5-0.1-1.1-0.2-1.6-0.1c-0.3,0.1-0.5,0.2-0.5,0.5s0.3,0.3,0.5,0.4c0.5,0,0.9,0.1,1.4,0.3
	c0.6,0.2,1,0.7,0.9,1.3c0,0.6-0.3,1.2-0.9,1.4c-0.9,0.3-1.9,0.3-2.8,0C105.7,16.7,105.6,16.2,105.7,15.6z"/>
<path class="st7" d="M235,22.8c0.4-0.6,1.1-0.9,1.8-0.7c0.8,0.2,1.3,0.9,1.3,1.7c0,0.8,0,1.6,0,2.4c0,0.2,0,0.5-0.3,0.5
	s-0.3-0.2-0.3-0.5c0-0.8,0-1.6,0-2.5c0-0.7-0.5-1.2-1.1-1.2c-0.2,0-0.4,0-0.5,0.1c-0.6,0.2-1,0.8-0.9,1.4c0,0.7,0,1.4,0,2.2
	c0,0.2,0,0.5-0.3,0.5s-0.3-0.2-0.3-0.4c0-2.1,0-4.2,0-6.3c0-0.2,0-0.4,0.3-0.4s0.3,0.3,0.3,0.5c0,0.8,0,1.7,0,2.5
	C234.9,22.5,234.9,22.6,235,22.8z"/>
<path class="st8" d="M231.2,23.3c0,0.9,0,1.8,0,2.7c0,0.2,0,0.5-0.3,0.5s-0.3-0.2-0.3-0.5c0-1.8,0-3.6,0-5.3c0-0.4-0.1-0.5-0.5-0.4
	c-0.4,0-0.9,0-1.3,0c-0.1,0-0.3,0-0.4-0.2c-0.1-0.2-0.1-0.3,0.1-0.3c0.4,0,0.7,0,1.1,0h3.1h0.4c0.2,0,0.3,0,0.3,0.2
	s-0.2,0.3-0.3,0.3l0,0h-1.3c-0.6,0-0.6,0-0.6,0.6C231.2,21.7,231.2,22.5,231.2,23.3z"/>
<path class="st9" d="M170.7,19c0-0.7,0-1.4,0-2.2c0-0.4,0.2-0.5,0.6-0.5c0.5,0,0.7,0.1,0.7,0.5c0,1.4,0,2.8,0,4.3
	c0,0.3-0.1,0.4-0.5,0.4c-0.8,0-0.8,0-0.8-0.8C170.7,20.1,170.7,19.5,170.7,19z"/>
<path class="st10" d="M124.8,13.4c0.3,0,0.6,0,0.9,0.1c0.2,0.1,0.3,0.2,0.2,0.4c-0.1,0.2-0.3,0.1-0.4,0.1c-0.3-0.1-0.6-0.1-0.9,0
	c-0.2,0-0.4,0.1-0.4,0.3s0.2,0.3,0.3,0.3c0.3,0.1,0.6,0.1,0.9,0.2c0.4,0.1,0.7,0.4,0.7,0.8c0,0.4-0.2,0.8-0.6,1
	c-0.7,0.3-1.4,0.3-2.1,0.1c-0.2,0-0.3-0.1-0.3-0.3c0-0.2,0-0.4,0.3-0.3c0.4,0.1,0.8,0.2,1.2,0.1c0.2,0,0.3-0.2,0.3-0.3
	c0-0.2-0.1-0.4-0.3-0.4l0,0c-0.3-0.1-0.6-0.1-0.8-0.2c-0.5-0.1-0.8-0.5-0.9-0.9c0.1-0.5,0.4-0.8,0.9-0.9
	C124.2,13.4,124.5,13.4,124.8,13.4z"/>
<path class="st11" d="M155.9,22.7c-0.3,0.3-0.7,0.6-1.2,0.7c-1.1,0.2-2-0.4-2.1-1.6c-0.1-0.9,0-1.7,0-2.6c0-0.2,0-0.3,0.3-0.3
	c0.2,0,0.3,0.2,0.3,0.3c0,0.5,0,1.1,0,1.6c0,0.3,0,0.6,0,0.9c0,0.8,0.4,1.3,1.1,1.3c0.7,0.1,1.4-0.4,1.6-1.1
	c0.1-0.3,0.1-0.7,0.1-1.1c0-0.6,0-1.1,0-1.7c0-0.2,0-0.3,0.3-0.3c0.2,0,0.3,0.1,0.3,0.3c0,0.9,0,1.7,0,2.6c0,0.4,0,0.8,0,1.2
	c0,0.2,0.1,0.3-0.2,0.4s-0.3-0.1-0.3-0.3C155.9,22.9,155.9,22.8,155.9,22.7z"/>
<path class="st12" d="M136.7,19.9c0-1,0-1.9,0-2.9c0-0.2,0-0.5,0.3-0.5s0.3,0.3,0.3,0.5c0,1.8,0,3.6,0,5.4c0,0.3,0.1,0.4,0.4,0.4
	c0.8,0,1.6,0,2.4,0c0.2,0,0.4-0.1,0.4,0.2c0,0.3-0.2,0.3-0.4,0.3c-1,0-2,0-3,0c-0.3,0-0.5-0.1-0.5-0.5
	C136.7,21.9,136.7,20.9,136.7,19.9z"/>
<path class="st7" d="M159.7,18.7c0.4,0,0.9,0.2,1.2,0.5c0.1,0.1,0.3,0.2,0.1,0.4c-0.1,0.1-0.2,0.2-0.4,0c-0.4-0.4-0.9-0.5-1.4-0.3
	c-0.3,0.1-0.6,0.4-0.6,0.7c0,0.4,0.3,0.7,0.6,0.7c0.4,0.1,0.9,0.2,1.3,0.4c0.5,0.1,0.8,0.6,0.8,1.1s-0.3,1-0.8,1.1
	c-0.8,0.3-1.7,0.2-2.3-0.4c-0.1-0.1-0.3-0.2-0.1-0.4c0.2-0.2,0.3-0.2,0.5,0c0.5,0.5,1.2,0.6,1.8,0.3c0.3-0.1,0.5-0.4,0.4-0.7
	c0-0.3-0.2-0.6-0.5-0.6c-0.4-0.1-0.7-0.3-1.1-0.4c-0.8-0.2-1.1-0.8-1.1-1.3c0.2-0.6,0.7-1.1,1.4-1.1
	C159.5,18.7,159.7,18.7,159.7,18.7z"/>
<path class="st13" d="M260,26.7c-0.5,0-1-0.2-1.4-0.6c-0.1-0.1-0.3-0.2,0-0.3c0.2-0.1,0.2-0.3,0.4,0c0.3,0.4,0.9,0.6,1.4,0.5
	c0.4,0,0.8-0.3,0.8-0.7c0.1-0.4-0.2-0.8-0.7-0.9c-0.4-0.1-0.7-0.2-1.1-0.3c-0.5-0.1-0.9-0.6-0.9-1.1s0.4-1,0.9-1.2
	c0.6-0.2,1.3-0.1,1.9,0.4c0.1,0.1,0.3,0.2,0.1,0.3c-0.2,0.2-0.3,0.2-0.5,0c-0.4-0.4-1-0.5-1.5-0.3c-0.3,0.1-0.5,0.3-0.5,0.6
	c0,0.3,0.1,0.5,0.4,0.6s0.6,0.2,1,0.3c0.3,0.1,0.6,0.2,0.9,0.5c0.8,0.6,0.2,1.8-0.6,2C260.5,26.6,260.2,26.7,260,26.7z"/>
<path class="st7" d="M147.2,20.9c0-0.4,0-0.9,0-1.3c0-0.2,0-0.4-0.3-0.3c-0.1,0-0.3,0-0.4,0c-0.1,0-0.3-0.1-0.3-0.2s0.1-0.2,0.2-0.2
	l0,0l0,0c0.2-0.1,0.5,0.1,0.6-0.1c0-0.2,0-0.4,0-0.7c0-0.1,0-0.3,0-0.4c0.1-0.1,0.4-0.1,0.5,0.1s0.1,0.5,0.1,0.8s0.1,0.4,0.3,0.3
	c0.2,0,0.4,0,0.6,0c0.1,0,0.3,0,0.3,0.2s-0.2,0.2-0.3,0.3c-0.2,0-0.5,0-0.7,0s-0.3,0-0.3,0.3c0,0.8,0,1.7,0,2.5
	c0,0.7,0.2,0.8,0.8,0.8c0.1,0,0.3-0.1,0.4,0.1s-0.2,0.3-0.3,0.3c-0.6,0.2-1.2-0.1-1.4-0.7c0-0.1-0.1-0.3-0.1-0.4
	C147.2,21.8,147.2,21.4,147.2,20.9z"/>
<path class="st7" d="M220.3,22.3c-0.1,0.3-0.2,0.5-0.3,0.8c-0.4,1-0.8,2-1.2,3.1c-0.1,0.2-0.2,0.4-0.5,0.4s-0.4-0.2-0.5-0.4
	c-0.5-1.2-1-2.4-1.5-3.7c-0.1-0.2-0.1-0.3,0.1-0.4c0.2-0.1,0.3,0.1,0.4,0.2c0.4,1.1,0.8,2.2,1.2,3.2c0,0.1,0,0.3,0.2,0.3
	s0.2-0.2,0.2-0.3c0.4-1,0.7-2,1.1-3c0.1-0.2,0.1-0.5,0.5-0.5C220.2,22.1,220.3,22.1,220.3,22.3z"/>
<path class="st7" d="M263.7,24.2c0,0.4,0,0.8,0,1.2c0,0.6,0.3,0.7,0.8,0.7c0.1,0,0.4-0.1,0.4,0.1c0,0.3-0.2,0.3-0.4,0.3
	c-0.7,0.1-1.3-0.2-1.4-1.1c0-0.9,0-1.7,0-2.5c0-0.4-0.1-0.5-0.5-0.5c-0.1,0-0.2,0.1-0.3,0c-0.1-0.1-0.2-0.1-0.1-0.2
	c0-0.1,0.1-0.1,0.2-0.1c0.2-0.1,0.5,0.1,0.6-0.1s0.1-0.5,0.1-0.7s0-0.5,0.3-0.5s0.2,0.3,0.3,0.5s-0.1,0.6,0.1,0.7
	c0.1,0.2,0.5,0,0.7,0.1h0.2c0.1,0,0.3,0,0.2,0.2c0,0.1-0.1,0.2-0.2,0.2l0,0c-0.2,0-0.4,0-0.6,0c-0.3,0-0.4,0.1-0.4,0.4
	C263.7,23.3,263.7,23.8,263.7,24.2L263.7,24.2z"/>
<path class="st14" d="M171.3,14.1c0.4,0,0.7,0.3,0.8,0.7c0,0.4-0.4,0.7-0.8,0.8c-0.4-0.1-0.7-0.4-0.8-0.8
	C170.6,14.5,170.9,14.2,171.3,14.1z"/>
<path class="st15" d="M122.5,12c0.1,0.6-0.2,1.1-0.7,1.4c-0.1,0.1-0.3,0.2-0.4,0s0-0.2,0.2-0.3s0.3-0.4,0.3-0.7c0-0.1,0-0.2-0.2-0.2
	c-0.4,0-0.3-0.3-0.3-0.5s0.2-0.3,0.4-0.3C122.3,11.3,122.5,11.4,122.5,12z"/>
<path class="st16" d="M195.3,51.1c0,0.9,0,1.8,0,2.7c0,4.8,0,9.5,0,14.3c0,0.3,0,0.5-0.4,0.5c-3.6,0-7.1,0-10.7,0
	c-0.5,0-0.5,0-0.5-0.5c0-11.2,0-22.5,0-33.7c0-0.3,0-0.7,0-1s0.1-0.4,0.4-0.4c0.7,0,1.3,0,2,0h9.7c0.2,0,0.4,0.1,0.5,0.3
	c0.9,1.5,1.8,2.9,2.7,4.4c1,1.6,1.9,3.2,2.9,4.8c0.6,0.9,1.1,1.8,1.6,2.7c0.2,0.3,0.3,0.3,0.4,0c1.4-2.3,2.8-4.6,4.2-7l3.1-5
	c0.1-0.1,0.2-0.2,0.3-0.2H223h0.2c0.6,0,0.6,0,0.6,0.6c0,3.7,0,7.4,0,11c0,7.8,0,15.7,0,23.5c0,0.5,0,0.5-0.5,0.5
	c-3.6,0-7.2,0-10.8,0c-0.4,0-0.5-0.1-0.5-0.5c0-5.5,0-10.9,0-16.4c0-0.2,0-0.4,0-0.5c-0.2,0-0.3,0.1-0.3,0.2
	c-0.8,1.2-1.5,2.4-2.3,3.6c-0.7,1-1.3,2-2,3c-1,1.4-1.8,2.9-2.8,4.3c-0.3,0.4-0.5,0.8-0.8,1.2c-0.2,0.2-0.3,0.2-0.5,0
	c-0.5-0.7-0.9-1.5-1.4-2.2c-0.8-1.3-1.6-2.6-2.5-3.8l-2.4-3.7l-1.5-2.4C195.5,51.2,195.4,51.1,195.3,51.1z"/>
<path class="st16" d="M116.6,33.7c1.9,0.4,3.6,1,5.3,1.9c2.1,1.1,4,2.6,5.4,4.5c1.2,1.6,2,3.4,2.5,5.3c0.7,2.8,0.8,5.7,0.3,8.5
	c-0.3,2.2-1.1,4.4-2.3,6.3c-1.1,1.7-2.5,3.2-4.1,4.3c-1.5,1-3.1,1.9-4.8,2.5c-1.9,0.7-3.8,1.1-5.8,1.3c-1,0.1-2,0.2-2.9,0.2
	c-0.1,0-0.3,0-0.5,0H96.2c-0.6,0-0.6,0-0.6-0.6c0-7.2,0-14.4,0-21.7c0-4.1,0-8.1,0-12.2c0-0.3,0-0.5-0.1-0.8c0-0.2,0.1-0.2,0.3-0.2
	c0.4,0,0.8,0,1.2,0c4.1,0,8.2,0,12.3,0c1.4,0,2.8,0.1,4.2,0.3C114.6,33.4,115.6,33.6,116.6,33.7z"/>
<path class="st16" d="M149.8,50.7c0-5.8,0-11.5,0-17.3c0-0.6,0-0.6,0.6-0.6H179c0.1,0,0.2,0,0.4,0c0.9,0.1,0.9,0.1,0.9,0.9
	c0,2.8,0,5.5,0,8.3c0,0.5-0.2,0.5-0.6,0.5c-5.9,0-11.7,0-17.6,0c-0.6,0-0.6,0-0.5,0.6c0,0.9,0,1.7,0,2.6c0,0.3,0.1,0.4,0.4,0.4
	c0.2,0,0.4,0,0.6,0H178c0.9,0,0.9,0,0.9,0.9c0,2.4,0,4.8,0,7.2c0,0.3-0.1,0.4-0.4,0.4c-5.5,0-11,0-16.4,0c-0.6,0-0.6,0-0.6,0.6
	c0,0.9,0,1.8,0,2.7c0,0.4,0.1,0.6,0.5,0.6c0.1,0,0.2,0,0.4,0h17c1.1,0,1.1,0,1.1,1.1c0,2.7,0,5.5,0,8.2c0,0.3,0,0.5-0.4,0.5
	c-9.9,0-19.8,0-29.8,0c-0.4,0-0.5-0.1-0.5-0.5C149.8,62.3,149.8,56.5,149.8,50.7z"/>
<path class="st16" d="M242.3,32.3c1.6,0,3.2,0.1,4.7,0.3c1.7,0.2,3.4,0.6,5,1.2c2,0.7,4,1.8,5.7,3.1c0.3,0.2,0.3,0.4,0.1,0.7
	c-1.3,1.8-2.5,3.5-3.8,5.3c-0.5,0.7-1,1.4-1.5,2.1c-0.2,0.3-0.4,0.3-0.6,0.1c-1.3-0.9-2.7-1.6-4.2-2.2c-2.1-0.8-4.4-1.1-6.7-1.1
	c-0.4,0-0.8,0.1-1.2,0.3c-0.5,0.2-0.9,0.7-0.8,1.3c0.1,0.6,0.4,1.1,1,1.2c1.3,0.5,2.6,0.9,3.9,1.1c2.2,0.4,4.4,0.9,6.5,1.6
	c2.3,0.7,4.4,1.9,6.1,3.5c1.5,1.5,2.4,3.5,2.4,5.7c0.1,1.8-0.2,3.6-0.8,5.3c-0.8,1.9-2.1,3.4-3.7,4.6c-2,1.4-4.3,2.3-6.7,2.6
	c-3.6,0.6-7.3,0.5-10.9-0.2c-1.7-0.3-3.4-0.8-5.1-1.4c-1.9-0.7-3.6-1.7-5.3-2.8c-0.4-0.3-0.8-0.6-1.2-1c-0.2-0.2-0.2-0.3,0-0.6
	c1.6-1.9,3.2-3.8,4.8-5.7c0.4-0.4,0.7-0.8,1.1-1.2c0.2-0.2,0.3-0.3,0.6-0.1c1.1,0.8,2.2,1.5,3.5,2.1c1.6,0.7,3.3,1.2,5.1,1.5
	c1.2,0.2,2.4,0.3,3.6,0.3c0.7,0,1.3-0.1,1.9-0.2c0.7-0.1,1.2-0.8,1.1-1.5c-0.1-0.5-0.3-0.9-0.8-1.1c-0.8-0.4-1.7-0.7-2.5-0.9
	c-2.8-0.5-5.5-1.2-8.2-2c-2.3-0.8-4.5-1.8-6.2-3.6c-1.3-1.3-2-3-2.2-4.8s0-3.6,0.6-5.3c0.7-1.8,1.8-3.5,3.3-4.7
	c1.6-1.3,3.5-2.3,5.5-2.8C238.3,32.4,240.3,32.2,242.3,32.3z"/>
<path class="st16" d="M145.7,50.8c0,5.8,0,11.5,0,17.3c0,0.4-0.1,0.5-0.5,0.5c-3.6,0-7.3,0-10.9,0c-0.4,0-0.5-0.1-0.5-0.5
	c0-11.3,0-22.6,0-33.9c0-1.2,0-1.2,1.2-1.2h7.8c0.9,0,1.8,0,2.7,0c0.2,0,0.3,0.1,0.3,0.3c0,0.4,0,0.8,0,1.1
	C145.7,39.8,145.7,45.3,145.7,50.8z"/>
<path class="st17" d="M116.6,33.7c-0.7,0-1.5-0.1-2.2-0.3h-0.1c-0.7,0.1-1.3-0.1-2-0.2c-5.1-0.3-10.2-0.1-15.4-0.1
	c-0.3,0-0.7,0-1.1,0c-0.2-0.1-0.4,0-0.2,0.3c0.1,0.2,0.1,0.4,0.1,0.6c0,11.3,0,22.7,0,34c0,0.5,0,0.5,0.5,0.5h13.3h0.5
	c-0.1,0.1-0.3,0.1-0.4,0.1c-4.6,0-9.1,0-13.7,0c-0.4,0-0.5-0.1-0.5-0.5c0-11.4,0-22.7,0-34.1c0-0.2,0-0.4,0-0.7
	c0-0.2,0.1-0.3,0.4-0.3c4.6,0,9.3,0,13.9,0c2.2,0,4.3,0.2,6.5,0.7C116.3,33.6,116.5,33.6,116.6,33.7z"/>
<path class="st18" d="M170.1,21.2l-1.7-2.8c-0.1-0.2-0.2-0.3,0.1-0.4c0.9-0.4,1.5-1.3,1.3-2.3c-0.2-0.9-1-1.6-1.9-1.6
	c-0.9-0.1-1.8-0.1-2.7,0c-0.3,0-0.4,0.2-0.4,0.5c0,2.2,0,4.3,0,6.5c0,0.5,0.1,0.6,0.7,0.6c0.5,0,0.6,0,0.6-0.5c0-0.8,0-1.5,0-2.2
	c0-0.2-0.1-0.4,0.1-0.4c0.3,0,0.5-0.1,0.7,0.2c0.5,0.9,1,1.7,1.5,2.6c0.1,0.2,0.2,0.4,0.4,0.4c0.4,0,0.8,0,1.3,0
	C170.2,21.4,170.2,21.3,170.1,21.2z M166.3,17c-0.2,0-0.2-0.1-0.2-0.2c0-0.2,0-0.4,0-0.7c0-0.9,0-0.9,0.9-0.9c0.3,0,0.5,0,0.8,0.1
	c0.4,0.1,0.6,0.4,0.6,0.8s-0.2,0.7-0.6,0.8C167.4,17,166.9,17.1,166.3,17L166.3,17z"/>
<path class="st19" d="M179.3,16.3c-1.1,0.2-2,1.1-2.1,2.2c-0.2,1.5,0.7,2.8,2.2,3.1c0.8,0.1,1.7-0.1,2.3-0.7s0.5-0.5,0-0.9
	c-0.1-0.1-0.2-0.2-0.3-0.3c-0.2-0.2-0.3-0.1-0.4,0c-0.4,0.6-1.2,0.9-1.8,0.5c-0.2-0.1-0.4-0.3-0.5-0.5s-0.1-0.3,0.2-0.3
	c0.7,0,1.4,0,2.1,0c0.3-0.1,0.6-0.1,0.9-0.1c0.3,0,0.4-0.1,0.4-0.4c0.2-1.3-0.7-2.6-2.1-2.8C179.8,16.2,179.5,16.2,179.3,16.3z
	 M180.6,18.2c-0.3,0-0.6,0-0.9,0l0,0c-0.3,0-0.5,0-0.8,0c-0.1,0-0.2,0.1-0.3-0.1c0-0.1,0-0.2,0.1-0.2c0.4-0.5,1.2-0.7,1.7-0.3
	c0.1,0.1,0.2,0.2,0.3,0.3C180.8,18.1,180.8,18.2,180.6,18.2z"/>
<path class="st20" d="M113.7,12.2c-1-0.1-1.9-0.2-2.9-0.1c-0.3,0-0.3,0.2-0.3,0.4c0,0.6,0,1.3,0,1.9l0,0c0,0.5,0,1,0,1.5
	c0,0.9,0,0.9,0.9,0.9h0.1c0.2-0.1,0.4-0.2,0.4-0.4c0-0.3,0-0.7,0-1.1c0-0.2,0.1-0.3,0.3-0.3c0.4,0,0.7,0,1.1,0
	c0.7,0,1.3-0.6,1.4-1.3C114.8,13,114.4,12.3,113.7,12.2L113.7,12.2z M112.5,14.2c-0.5,0-0.5,0-0.5-0.7c0.1-0.2-0.3-0.7,0.4-0.7
	c0.7,0,0.9,0.2,0.9,0.7S113.1,14.2,112.5,14.2z"/>
<path class="st7" d="M251.9,26.1c-0.5-0.8-1-1.7-1.5-2.5c-0.1-0.2-0.1-0.3,0.2-0.4c0.9-0.1,1.5-0.9,1.4-1.8c0-0.9-0.7-1.6-1.5-1.7
	c-0.7-0.1-1.5-0.1-2.2-0.1c-0.3,0-0.4,0.2-0.4,0.5c0,1,0,2,0,3c0,0.7,0,1.3,0,2c0,0.4,0,0.8,0,1.2c0,0.2,0.1,0.3,0.3,0.3
	s0.3-0.2,0.3-0.3c0-0.1,0-0.2,0-0.3c0-0.6,0-1.2,0-1.8c0-0.8,0-0.8,0.8-0.8c0.3,0,0.5,0.1,0.6,0.3c0.5,0.9,1.1,1.8,1.6,2.7
	c0.1,0.2,0.3,0.3,0.5,0.2c0,0,0.1,0,0.1-0.1C252.2,26.4,252,26.2,251.9,26.1z M248.7,22.8c-0.2,0-0.2-0.1-0.2-0.3c0-0.3,0-0.7,0-1
	l0,0c0-0.3,0-0.6,0-0.9s0-0.3,0.3-0.3c0.6,0,1.1,0,1.7,0.1c0.6,0.1,1,0.6,0.9,1.2c0,0.6-0.4,1-1,1.1
	C249.8,22.8,249.2,22.8,248.7,22.8z"/>
<path class="st7" d="M203.6,26c-0.3-0.9-0.7-1.7-1.1-2.5c-0.5-1.2-1-2.3-1.4-3.5c-0.1-0.2-0.2-0.3-0.4-0.3s-0.3,0.1-0.4,0.3
	c-0.4,0.9-0.7,1.7-1.1,2.6c-0.5,1.2-1,2.3-1.5,3.5c0,0.1-0.2,0.2,0,0.3c0.1,0.1,0.3,0.1,0.4-0.1l0,0c0.1-0.1,0.2-0.3,0.2-0.4
	c0.2-0.4,0.3-0.7,0.4-1.1c0.1-0.2,0.1-0.2,0.3-0.2c0.5,0,1,0,1.5,0l0,0c0.5,0,0.9,0,1.4,0c0.3-0.1,0.6,0.1,0.6,0.4c0,0,0,0,0,0.1
	c0.1,0.4,0.2,0.7,0.4,1.1c0.1,0.2,0.3,0.4,0.5,0.3C203.7,26.5,203.7,26.3,203.6,26z M201.8,24.2c-0.9,0-1.7,0-2.6,0l1.5-3.7l0.6,1.5
	c0.2,0.6,0.5,1.2,0.7,1.8C202.1,24.1,202.1,24.2,201.8,24.2L201.8,24.2z"/>
<path class="st13" d="M209.2,23.2c-1.1-1.6-2.3-1.5-3.7-0.3c0-1.1,0-2.1,0-3.1c0-0.2,0-0.5-0.3-0.5s-0.3,0.3-0.3,0.5v0.1
	c0,2,0,4.1,0,6.1c0,0.1,0,0.2,0,0.4c0,0.1,0.1,0.3,0.2,0.2c0.2,0,0.3,0,0.3-0.3c0-0.2,0-0.3,0-0.5c1.4,1,2.3,1.1,3.2,0.3
	C209.5,25.4,209.8,24.2,209.2,23.2z M207.2,26.2c-1,0-1.7-0.8-1.7-1.8v-0.1c0-1,0.7-1.8,1.7-1.8l0,0c1,0,1.7,0.8,1.7,1.9
	c0.1,0.9-0.6,1.7-1.5,1.8C207.3,26.2,207.2,26.2,207.2,26.2z"/>
<path class="st7" d="M142.1,21.2c0.5,0,1,0,1.5,0l0,0c0.5,0,1,0,1.5,0c0.4,0,0.5-0.2,0.5-0.5c0-1-0.7-1.8-1.7-2
	c-1.3-0.2-2.5,0.6-2.7,1.9c-0.1,0.4,0,0.8,0.1,1.2c0.4,1.2,1.6,1.9,2.9,1.6c0.4-0.1,0.7-0.3,0.9-0.5s0.2-0.3,0-0.5s-0.2,0.1-0.3,0.2
	c-0.7,0.7-1.8,0.6-2.5-0.1c-0.2-0.2-0.4-0.5-0.4-0.8C141.7,21.4,141.7,21.2,142.1,21.2z M143.3,19.2c0.8-0.1,1.5,0.4,1.6,1.2
	c0.1,0.3,0,0.3-0.3,0.3c-0.4,0-0.8,0-1.2,0h-1.3c-0.2,0-0.3,0-0.2-0.2C142,19.8,142.6,19.3,143.3,19.2L143.3,19.2z"/>
<path class="st13" d="M243.4,24.5c0.3,0,0.5-0.1,0.5-0.4c-0.1-1.1-0.6-1.9-1.8-2.1c-0.9-0.1-1.8,0.4-2.2,1.3s-0.3,2,0.4,2.8
	c0.6,0.6,1.6,0.8,2.4,0.5c0.3-0.1,0.6-0.3,0.8-0.6c0.1-0.1,0.1-0.2-0.1-0.3c-0.1-0.1-0.1-0.2-0.3,0c-0.6,0.7-1.7,0.8-2.4,0.2
	c-0.4-0.3-0.6-0.8-0.6-1.4C241.3,24.5,242.4,24.5,243.4,24.5z M241.8,24h-1.3c-0.1,0-0.2,0-0.2-0.2c0.1-0.7,0.7-1.2,1.5-1.3
	c0.7,0,1.3,0.4,1.5,1.1c0.1,0.3,0,0.5-0.3,0.4S242.1,24,241.8,24z"/>
<path class="st13" d="M225,24.5c0.3,0,0.4-0.1,0.4-0.4c0-1.2-1-2.1-2.1-2.1c-0.1,0-0.3,0-0.4,0c-1.3,0.4-2,1.8-1.6,3
	c0.1,0.2,0.2,0.4,0.3,0.6c0.7,1,2,1.3,3.1,0.7c0.1-0.1,0.2-0.2,0.3-0.3c0.1-0.1,0.2-0.3,0.1-0.4s-0.3,0-0.4,0.1
	c-0.7,0.7-1.7,0.7-2.4,0c-0.2-0.2-0.4-0.5-0.5-0.8s-0.1-0.5,0.3-0.5c0.5,0,0.9,0,1.4,0l0,0C224,24.5,224.5,24.5,225,24.5z M222,24
	c-0.2,0-0.2-0.1-0.2-0.2c0.2-0.7,0.8-1.2,1.5-1.3c0.7,0,1.4,0.5,1.5,1.3c0,0.2,0,0.2-0.2,0.2C223.7,24,222.9,24,222,24z"/>
<path class="st7" d="M253.9,24.5c0.5,0,1,0,1.5,0l0,0c0.5,0,1,0,1.5,0c0.3,0,0.4-0.1,0.4-0.4c0-1.1-0.9-2.1-2.1-2.1
	c-0.6,0-1.2,0.3-1.6,0.7c-0.8,0.9-0.8,2.4,0,3.3c0.8,0.8,2.1,0.9,3,0.2c0.2-0.1,0.5-0.2,0.3-0.5s-0.4,0-0.6,0.1l-0.1,0.1
	c-0.7,0.6-1.8,0.4-2.4-0.3c-0.2-0.2-0.3-0.5-0.3-0.8C253.6,24.6,253.6,24.4,253.9,24.5z M253.8,23.7c0.2-0.7,0.8-1.2,1.5-1.2
	s1.3,0.5,1.5,1.2c0.1,0.2,0,0.4-0.3,0.4c-0.4,0-0.8,0-1.2,0s-0.8,0-1.2,0C253.7,24,253.7,23.9,253.8,23.7L253.8,23.7z"/>
<path class="st13" d="M213.1,22c-1.3,0-2.4,1-2.4,2.3s1,2.4,2.3,2.4s2.4-1,2.4-2.3l0,0C215.4,23.1,214.4,22,213.1,22L213.1,22z
	 M212.3,26c-0.9-0.5-1.3-1.7-0.8-2.6c0.4-0.8,1.4-1.2,2.2-0.8h0.1c0.6,0.3,0.9,1,0.9,1.6C214.7,25.7,213.5,26.6,212.3,26L212.3,26z"
	/>
<path class="st21" d="M107.4,50.7c0-2.3,0-4.6,0-6.9c0-0.4,0.1-0.5,0.5-0.5c1.4,0,2.9,0.1,4.3,0.2c0.9,0.2,1.9,0.5,2.7,0.9
	c1.4,0.7,2.5,1.9,3,3.4s0.6,3.2,0.3,4.8c-0.1,0.7-0.4,1.5-0.7,2.1c-0.6,1-1.4,1.7-2.4,2.2c-1.7,0.8-3.5,1.2-5.4,1.2
	c-0.6,0-1.2,0-1.8,0c-0.3,0-0.4-0.1-0.4-0.4C107.4,55.4,107.4,53.1,107.4,50.7z"/>
<path class="st16" d="M-0.8,135c1.2,0.2,2.2,0.6,3.3,1.2c1.3,0.7,2.5,1.6,3.3,2.8c0.7,1,1.2,2.1,1.5,3.3c0.4,1.7,0.5,3.5,0.2,5.2
	c-0.2,1.4-0.7,2.7-1.4,3.9c-0.7,1-1.5,2-2.5,2.6c-0.9,0.6-1.9,1.2-3,1.5c-1.2,0.4-2.3,0.7-3.6,0.8c-0.6,0.1-1.2,0.1-1.8,0.1
	c-0.1,0-0.2,0-0.3,0h-8.3c-0.4,0-0.4,0-0.4-0.4c0-4.4,0-8.9,0-13.4c0-2.5,0-5,0-7.5c0-0.2,0-0.3-0.1-0.5c0-0.1,0.1-0.1,0.2-0.1
	c0.2,0,0.5,0,0.7,0c2.5,0,5,0,7.6,0c0.9,0,1.7,0.1,2.6,0.2C-2,134.8-1.4,134.9-0.8,135z"/>
<path class="st21" d="M-6.4,145.5c0-1.4,0-2.8,0-4.2c0-0.2,0.1-0.3,0.3-0.3c0.9,0,1.8,0.1,2.6,0.1c0.6,0.1,1.2,0.3,1.7,0.6
	c0.9,0.4,1.5,1.2,1.8,2.1s0.4,2,0.2,3c-0.1,0.4-0.2,0.9-0.4,1.3c-0.4,0.6-0.9,1-1.5,1.4c-1,0.5-2.2,0.7-3.3,0.7c-0.4,0-0.7,0-1.1,0
	c-0.2,0-0.2-0.1-0.2-0.2C-6.4,148.3-6.4,146.9-6.4,145.5z"/>
<path class="st2" d="M121.7,165.9c0.1,0.2,0.1,0.4,0.2,0.5v-3.3c-0.1,0.1-0.1,0.2-0.2,0.4V165.9z"/>
</svg>
